<svg width="26" height="38" viewBox="0 0 26 38" fill="none" xmlns="http://www.w3.org/2000/svg">
<path d="M26 12.709C26 22.8185 13 38 13 38C13 38 0 22.8185 0 12.709C0 5.69003 5.8203 0 13 0C20.1797 0 26 5.69003 26 12.709Z" fill="#1178E7"/>
<path fill-rule="evenodd" clip-rule="evenodd" d="M13 2.5C7.20101 2.5 2.5 7.20101 2.5 13C2.5 18.799 7.20101 23.5 13 23.5C18.799 23.5 23.5 18.799 23.5 13C23.5 7.20101 18.799 2.5 13 2.5ZM1.5 13C1.5 6.64873 6.64873 1.5 13 1.5C19.3513 1.5 24.5 6.64873 24.5 13C24.5 19.3513 19.3513 24.5 13 24.5C6.64873 24.5 1.5 19.3513 1.5 13Z" fill="white"/>
<path d="M13.0391 18V8.46875L10.2422 9.60938V8L14.2578 6.47656H14.8281V18H13.0391Z" fill="white"/>
</svg>
