<svg width="42" height="42" viewBox="0 0 42 42" fill="none" xmlns="http://www.w3.org/2000/svg">
<path d="M27.8251 13.6703V9.54419C28.2956 9.64708 28.7068 9.76644 29.1263 9.81892C30.0152 9.93005 30.9063 10.0192 31.7994 10.0864C32.0659 10.107 32.1596 10.176 32.1565 10.4435C32.145 11.5476 32.1565 12.6516 32.1513 13.7557V14.2249C33.6606 14.1889 35.0139 13.7649 36.3348 13.0817C36.3551 13.1875 36.3694 13.2943 36.3775 13.4017C36.3775 14.621 36.3848 15.8413 36.3775 17.0606C36.3767 17.1268 36.3614 17.1919 36.3326 17.2516C36.3039 17.3113 36.2624 17.3641 36.211 17.4064C34.9681 18.0922 33.5743 18.467 32.1513 18.4981V14.2794C30.6856 14.2852 29.2272 14.0772 27.823 13.662L27.8251 13.6703Z" fill="white"/>
<path d="M32.1147 22.7703C33.5981 22.7189 34.993 22.3258 36.3826 21.5891V22.3721C36.3826 23.4237 36.393 24.4743 36.3722 25.5259C36.3663 25.6139 36.3409 25.6996 36.298 25.7769C36.255 25.8542 36.1954 25.9213 36.1234 25.9735C34.9888 26.5791 33.7363 26.938 32.4499 27.0261C32.1241 27.0508 32.1272 26.8604 32.1272 26.6412C32.1272 25.3482 32.1272 24.0548 32.1272 22.7611L32.1147 22.7703Z" fill="white"/>
<path d="M10.6909 5.82967C11.6538 5.52099 12.5365 5.17012 13.4547 4.97153C15.3929 4.55378 17.327 4.76574 19.1924 5.35018C21.3586 6.03032 23.4863 6.82569 25.6327 7.56551C27.3659 8.1623 29.1199 8.68192 30.9676 8.80024C33.1109 8.93915 35.097 8.46275 36.9093 7.31033C37.0049 7.24201 37.1101 7.18793 37.2216 7.14981C37.4631 7.08293 37.638 7.14981 37.6505 7.43072C37.6505 7.53361 37.6505 7.6365 37.6505 7.7394C37.6505 13.5828 37.6505 19.4262 37.6619 25.2696C37.6619 26.0207 37.3757 26.53 36.7344 26.9159C34.7566 28.1023 32.6154 28.4964 30.3305 28.2309C28.3527 28.0004 26.4905 27.3522 24.6292 26.6875C22.7472 26.0197 20.8693 25.3334 18.954 24.7736C16.8273 24.1563 14.6549 24.0132 12.5001 24.6882C11.9942 24.8467 11.5122 25.0782 11.0168 25.2685C10.7638 25.3663 10.6732 25.5361 10.6774 25.8046C10.693 26.921 10.6941 28.0385 10.6941 29.1559C10.6941 34.575 10.694 33.8613 10.694 39.2805C10.694 40.0244 10.5004 40.2065 9.74573 40.2065C9.09513 40.2065 8.44454 40.2065 7.79395 40.2065C7.236 40.2065 7.0122 39.9822 6.99658 39.4369C6.99658 39.3206 6.99658 39.2054 6.99658 39.0901L6.99662 5.81424C6.99662 4.65461 7.06011 4.59082 8.23118 4.59082C8.79121 4.59082 9.3502 4.59082 9.91023 4.59082C10.4703 4.59082 10.6722 4.79661 10.6909 5.36459C10.6951 5.53128 10.6909 5.69385 10.6909 5.82967ZM14.7413 14.3987C14.8683 14.4193 14.9942 14.4451 15.1223 14.4595C16.1278 14.5696 17.1334 14.6652 18.141 14.7897C18.471 14.8299 18.7947 14.9215 19.1913 15.0038V10.7131L23.4498 12.1587C23.4687 12.1109 23.4823 12.0612 23.4904 12.0106C23.4904 10.7655 23.5019 9.52051 23.4821 8.27548C23.4821 8.16024 23.3218 7.99355 23.1979 7.94519C22.4609 7.65914 21.7156 7.39161 20.9661 7.13746C20.3957 6.94299 19.8138 6.77836 19.1684 6.57875V10.711C19.0112 10.6822 18.9124 10.6657 18.8135 10.6441C17.48 10.3447 16.1403 10.1019 14.7631 10.2325C14.7904 10.1896 14.8098 10.1422 14.8204 10.0926C14.8204 8.78515 14.8159 7.47702 14.8069 6.1682C14.8069 6.14762 14.7798 6.12704 14.7652 6.10749C13.7649 6.04781 12.1712 6.46556 10.9991 7.06956C10.8973 7.10982 10.8117 7.18192 10.7553 7.27482C10.6989 7.36773 10.6748 7.47633 10.6868 7.58403C10.6993 8.71587 10.692 9.84257 10.6941 10.9724C10.6941 11.0824 10.7076 11.1925 10.7201 11.3839C11.9661 10.7051 13.3501 10.3107 14.7704 10.2295C14.7931 10.3015 14.8085 10.3756 14.8162 10.4507C14.8162 11.6895 14.8162 12.9284 14.8162 14.1672C14.8045 14.2522 14.7825 14.3355 14.7506 14.4152C14.6236 14.4635 14.4922 14.4997 14.3582 14.5232C13.1782 14.6351 12.0303 14.9667 10.9751 15.5007C10.7565 15.6088 10.6857 15.7446 10.6878 15.9823C10.6993 17.1625 10.6878 18.3437 10.6878 19.525C10.6878 19.6279 10.7097 19.7369 10.7274 19.8964C12.0338 19.243 13.3381 18.8006 14.7579 18.779C14.7845 18.9149 14.8019 19.0524 14.81 19.1906C14.81 20.307 14.8277 21.4244 14.8027 22.5398C14.7944 22.9205 14.9234 22.9935 15.2888 23.008C16.0914 23.0409 16.8929 23.1294 17.6903 23.2292C18.1702 23.2889 18.6427 23.4123 19.1934 23.5224V19.2564L23.5029 20.7175V16.5204L27.8114 17.9836C27.8114 16.4741 27.8114 15.0645 27.8114 13.6558C29.2152 14.071 30.6734 14.2791 32.1386 14.2732V18.4919C33.5617 18.4608 34.9555 18.086 36.1983 17.4002C36.2498 17.3579 36.2913 17.3051 36.32 17.2454C36.3488 17.1857 36.3641 17.1206 36.3649 17.0545C36.3774 15.8352 36.3732 14.6148 36.3649 13.3955C36.3567 13.2881 36.3425 13.1813 36.3222 13.0755C35.0013 13.7587 33.648 14.1827 32.1386 14.2187V13.7495C32.1386 12.6454 32.1324 11.5414 32.1438 10.4373C32.1438 10.1698 32.0533 10.1008 31.7868 10.0803C30.8937 10.0117 30.0026 9.92248 29.1136 9.81273C28.6973 9.76025 28.2809 9.63986 27.8125 9.538V13.6703L23.4623 12.2585V16.4278L19.1518 14.9698V19.2523C18.5803 19.1381 18.0786 18.9899 17.5674 18.9436C16.6306 18.8592 15.6844 18.8407 14.7434 18.7862C14.7759 18.6914 14.7982 18.5934 14.81 18.494C14.8141 17.2386 14.8141 15.983 14.81 14.727C14.8003 14.6153 14.7772 14.5051 14.7413 14.3987ZM32.1251 22.761C32.1251 24.0547 32.1251 25.3481 32.1251 26.6412C32.1251 26.8603 32.1251 27.0527 32.4478 27.026C33.7331 26.9375 34.9845 26.5786 36.1182 25.9734C36.1902 25.9212 36.2497 25.8541 36.2927 25.7768C36.3357 25.6995 36.361 25.6138 36.367 25.5258C36.3878 24.4742 36.3774 23.4236 36.3774 22.3721V21.5931C34.9908 22.3299 33.596 22.725 32.1095 22.7744C32.1199 21.4275 32.1355 20.0816 32.1272 18.7358C32.1272 18.6648 31.9284 18.5454 31.8149 18.53C30.9905 18.4363 30.1608 18.3839 29.3375 18.2779C28.844 18.2141 28.36 18.0783 27.8031 17.9599V22.2414L23.4769 20.77C23.4769 22.0819 23.4873 23.3372 23.4696 24.5925C23.4696 24.9012 23.5737 25.0576 23.8589 25.1554C24.7052 25.4435 25.5432 25.7583 26.3895 26.0475C26.8381 26.2008 27.2972 26.3212 27.8291 26.4786V22.2393C28.2757 22.3371 28.6483 22.4554 29.0304 22.4945C30.0599 22.6015 31.0925 22.6746 32.1241 22.761H32.1251ZM8.30089 38.9399C8.50616 38.929 8.71187 38.929 8.91713 38.9399C9.29708 38.9852 9.42511 38.8689 9.42511 38.4604C9.41054 32.2222 9.4078 32.1169 9.41682 25.8787C9.41682 19.395 9.41682 12.9126 9.41682 6.43161C9.41682 6.32871 9.41058 6.22582 9.41682 6.12292C9.42827 5.92845 9.34604 5.8379 9.14409 5.84305C8.87449 5.85025 8.60488 5.84305 8.30301 5.84305L8.30089 38.9399Z" fill="black"/>
<path d="M27.8168 13.6548V17.9836L23.5083 16.5205V20.7175L19.1988 19.2564V23.5225C18.6481 23.4124 18.1755 23.2889 17.6956 23.2292C16.8983 23.1263 16.0967 23.0409 15.2942 23.008C14.9288 22.9936 14.7997 22.9205 14.808 22.5398C14.833 21.4244 14.8195 20.307 14.8153 19.1906C14.8069 19.0525 14.7899 18.915 14.7643 18.779L14.7539 18.7893C15.697 18.8377 16.6411 18.8613 17.5801 18.9457C18.0912 18.991 18.5929 19.1391 19.1644 19.2544V14.9698L23.475 16.4279V12.2534L27.8251 13.6703L27.8168 13.6548Z" fill="white"/>
<path d="M8.30078 38.9523V5.85034C8.60266 5.85034 8.87226 5.85034 9.14187 5.85034C9.34381 5.85034 9.42605 5.93574 9.4146 6.13022C9.40731 6.23311 9.4146 6.33601 9.4146 6.4389C9.4146 12.922 9.4146 19.4043 9.4146 25.886C9.4146 32.1235 9.41737 32.2412 9.42292 38.48C9.42292 38.8916 9.29489 39.0048 8.91494 38.9595C8.7105 38.9463 8.50548 38.9438 8.30078 38.9523Z" fill="white"/>
<path d="M32.1243 22.7611C31.0927 22.6747 30.0601 22.6016 29.0306 22.4957C28.6486 22.4566 28.2759 22.3382 27.8293 22.2405V26.4797C27.2974 26.3223 26.8384 26.2019 26.3897 26.0486C25.5434 25.7595 24.7054 25.4446 23.8592 25.1565C23.5708 25.0588 23.4657 24.9013 23.4698 24.5937C23.4875 23.3384 23.4771 22.0831 23.4771 20.7712L27.8054 22.2395V17.958C28.3623 18.0763 28.8463 18.2122 29.3398 18.276C30.1631 18.3788 30.9928 18.4344 31.8172 18.528C31.9338 18.5414 32.1295 18.6608 32.1295 18.7338C32.1378 20.0797 32.1222 21.4256 32.1118 22.7725L32.1243 22.7611Z" fill="white"/>
<path d="M14.7591 10.2293C16.1373 10.1017 17.477 10.3446 18.8105 10.6409C18.9094 10.6625 19.0083 10.679 19.1654 10.7078V6.57861C19.8108 6.77823 20.3927 6.94286 20.9632 7.13733C21.7126 7.39148 22.458 7.65901 23.1949 7.94506C23.3188 7.99342 23.4781 8.16011 23.4791 8.27535C23.4989 9.52037 23.4906 10.7654 23.4875 12.0104C23.4793 12.0611 23.4657 12.1108 23.4469 12.1586L19.1883 10.7129V15.0077C18.7917 14.9254 18.468 14.8339 18.138 14.7937C17.1335 14.6733 16.1279 14.5735 15.1193 14.4634C14.9912 14.449 14.8653 14.4233 14.7383 14.4027H14.7445C14.7775 14.324 14.7998 14.2413 14.8111 14.1568C14.8167 12.918 14.8167 11.6791 14.8111 10.4403C14.8034 10.3652 14.788 10.2911 14.7653 10.219L14.7591 10.2293Z" fill="white"/>
<path d="M14.7412 14.3987C14.7811 14.5049 14.808 14.6154 14.8213 14.7279C14.8276 15.9833 14.8276 17.2389 14.8213 18.4949C14.8097 18.5945 14.787 18.6925 14.7537 18.7871L14.763 18.7779C13.3421 18.8005 12.0378 19.243 10.7315 19.8963C10.7138 19.7369 10.6919 19.6309 10.6919 19.5249C10.6919 18.3437 10.6981 17.1583 10.6919 15.9822C10.6919 15.7445 10.7606 15.6087 10.9792 15.5007C12.0329 14.963 13.1801 14.6275 14.3602 14.5119C14.4943 14.4884 14.6258 14.4519 14.7526 14.4028L14.7412 14.3987Z" fill="white"/>
<path d="M14.7705 10.2183C13.3501 10.2995 11.9662 10.694 10.7201 11.3728C10.7076 11.1845 10.6952 11.0744 10.6941 10.9612C10.6941 9.82938 10.6941 8.69754 10.6868 7.5729C10.6749 7.4652 10.6989 7.35659 10.7553 7.26369C10.8117 7.17078 10.8974 7.09869 10.9991 7.05842C12.1712 6.45443 13.7649 6.03668 14.7653 6.09533C14.7798 6.11591 14.8069 6.13649 14.8069 6.15707C14.8138 7.46452 14.8184 8.77265 14.8204 10.0815C14.8099 10.1313 14.7902 10.1787 14.7621 10.2214L14.7705 10.2183Z" fill="white"/>
</svg>
